<?xml version="1.0" encoding="UTF-8"?>
<svg version="1.1" xmlns="http://www.w3.org/2000/svg" width="1024" height="1024">
<path d="M0 0 C337.92 0 675.84 0 1024 0 C1024 337.92 1024 675.84 1024 1024 C686.08 1024 348.16 1024 0 1024 C0 686.08 0 348.16 0 0 Z " fill="#FEFEFE" transform="translate(0,0)"/>
<path d="M0 0 C12.54 0 25.08 0 38 0 C38.33 39.27 38.66 78.54 39 119 C41.97 114.38 44.94 109.76 48 105 C49.44375 102.7725 50.8875 100.545 52.375 98.25 C56.35203903 92.09826221 60.16960684 85.85303081 63.93115234 79.56738281 C64.80256426 78.12411709 65.70019055 76.69639119 66.62182617 75.28466797 C68.08760228 72.98789627 68.08760228 72.98789627 69.12231445 70.25048828 C70.75570077 66.89460565 71.94246905 65.18705951 75 63 C82.11284324 61.30159382 89.69837489 62.06665504 96.9375 62.375 C98.97710509 62.42519271 101.01682812 62.47081451 103.05664062 62.51171875 C108.04068058 62.621607 113.01904631 62.79395278 118 63 C117.20497924 64.44492559 116.40826686 65.88892051 115.61083984 67.33251953 C115.16735199 68.13674347 114.72386414 68.94096741 114.26693726 69.76956177 C112.85655041 72.25254247 111.3076596 74.56852514 109.625 76.875 C107.20952257 80.2566684 104.90178918 83.67068778 102.6875 87.1875 C100.02160417 91.41880044 97.28549766 95.59682017 94.5 99.75 C89.38218976 107.38579308 84.36394702 115.08542237 79.35351562 122.79199219 C78.74701172 123.72430664 78.14050781 124.65662109 77.515625 125.6171875 C76.93232422 126.52307617 76.34902344 127.42896484 75.74804688 128.36230469 C74.58918818 130.11095125 73.38707376 131.8317364 72.14257812 133.52050781 C71.57474609 134.30006836 71.00691406 135.07962891 70.421875 135.8828125 C69.9072168 136.55973145 69.39255859 137.23665039 68.86230469 137.93408203 C67.73003678 140.04566109 67.73003678 140.04566109 68.71240234 142.53393555 C69.80025377 144.61743712 70.89359727 146.60906623 72.1796875 148.57421875 C72.60701172 149.23131836 73.03433594 149.88841797 73.47460938 150.56542969 C73.93673828 151.26571289 74.39886719 151.96599609 74.875 152.6875 C75.36548828 153.43805664 75.85597656 154.18861328 76.36132812 154.96191406 C80.18621222 160.80130192 84.05948266 166.60859317 87.94580078 172.40722656 C91.23053475 177.31712722 94.47692343 182.25076218 97.703125 187.19921875 C98.11755859 187.83431366 98.53199219 188.46940857 98.95898438 189.12374878 C102.30981037 194.25930653 102.30981037 194.25930653 103.9621582 196.80505371 C108.53996965 203.85800607 113.20299452 210.79391364 118.28222656 217.50219727 C120 220 120 220 123 226 C123.33 172.21 123.66 118.42 124 63 C136.54 63 149.08 63 162 63 C162 117.78 162 172.56 162 229 C135.27 229 108.54 229 81 229 C78.03 224.05 75.06 219.1 72 214 C69.74440447 210.40506639 67.48040929 206.82062444 65.1875 203.25 C63.98148 201.36346714 62.77575646 199.47674473 61.5703125 197.58984375 C60.97508789 196.65897949 60.37986328 195.72811523 59.76660156 194.76904297 C56.54923816 189.72601702 53.36055561 184.66491448 50.1706543 179.60449219 C46.46334575 173.72573142 42.73146737 167.86373444 39 162 C38.67 184.11 38.34 206.22 38 229 C25.46 229 12.92 229 0 229 C0 153.43 0 77.86 0 0 Z " fill="#85CC19" transform="translate(320,426)"/>
<path d="M0 0 C12.54 0 25.08 0 38 0 C38 22.11 38 44.22 38 67 C40.97 66.505 40.97 66.505 44 66 C44 65.34 44 64.68 44 64 C56.99314657 59.08367427 75.6734865 57.05771685 89 62 C99.84117816 66.99488837 107.38052144 73.32242724 111.875 84.5 C115.32537609 94.05488763 116.28910345 102.7331659 116.22705078 112.86352539 C116.22734283 114.12305023 116.22763489 115.38257507 116.22793579 116.68026733 C116.22850575 120.10736935 116.21680986 123.53432917 116.20278788 126.96139836 C116.19022045 130.5528256 116.1891053 134.14425668 116.18673706 137.73570251 C116.18053986 144.52467489 116.16415307 151.31358227 116.14403808 158.10252613 C116.12162405 165.83655675 116.11067186 173.5705906 116.10064721 181.30464566 C116.07978512 197.20314107 116.04313109 213.10154703 116 229 C103.46 229 90.92 229 78 229 C77.9906543 225.29604004 77.98130859 221.59208008 77.97167969 217.77587891 C77.93787512 205.52226309 77.8825064 193.26882371 77.81609726 181.01534462 C77.77636729 173.58786301 77.74394427 166.16048642 77.72900391 158.73291016 C77.71595588 152.25547651 77.68891151 145.77827453 77.64538693 139.30097139 C77.62284231 135.87444451 77.60708506 132.44820262 77.60811615 129.021595 C77.60574343 125.18673453 77.57863594 121.35277162 77.54589844 117.51806641 C77.5509288 116.39452759 77.55595917 115.27098877 77.56114197 114.11340332 C77.45475939 106.03040638 76.31188726 98.48172763 70.5625 92.4375 C65.22008751 89.4405369 59.46879585 89.81707029 53.5 89.8125 C52.65824219 89.80025391 51.81648437 89.78800781 50.94921875 89.77539062 C50.13066406 89.77345703 49.31210937 89.77152344 48.46875 89.76953125 C47.36176758 89.76336792 47.36176758 89.76336792 46.23242188 89.75708008 C43.45523725 89.95809178 43.45523725 89.95809178 39 92 C38.67 137.21 38.34 182.42 38 229 C25.46 229 12.92 229 0 229 C0 153.43 0 77.86 0 0 Z " fill="#85CC19" transform="translate(609,426)"/>
<path d="M0 0 C1.11955078 0.38285156 1.11955078 0.38285156 2.26171875 0.7734375 C11.74019127 4.17001111 20.14980021 9.97441082 25 19 C28.41934299 27.61785633 31.12958436 36.15647063 31.12025452 45.50497437 C31.12231651 47.10762146 31.12231651 47.10762146 31.12442017 48.74264526 C31.11902725 50.47757736 31.11902725 50.47757736 31.11352539 52.24755859 C31.11367142 53.47738464 31.11381744 54.70721069 31.1139679 55.9743042 C31.11339202 59.33337022 31.10838852 62.69237422 31.10139394 66.05142927 C31.09512816 69.56680588 31.09455405 73.08218337 31.09336853 76.5975647 C31.09026471 83.24849146 31.08206413 89.89940172 31.07201904 96.55032122 C31.06082841 104.12467913 31.05534002 111.69903785 31.05032361 119.27340198 C31.03988071 134.84894583 31.02154705 150.42446695 31 166 C19.78 166 8.56 166 -3 166 C-3.495 162.535 -3.495 162.535 -4 159 C-4.58265625 159.31453125 -5.1653125 159.6290625 -5.765625 159.953125 C-6.58546875 160.38109375 -7.4053125 160.8090625 -8.25 161.25 C-9.43335938 161.87648438 -9.43335938 161.87648438 -10.640625 162.515625 C-20.26735243 166.76929526 -28.58759214 168.62987906 -39.125 168.4375 C-40.77822266 168.44813477 -40.77822266 168.44813477 -42.46484375 168.45898438 C-52.49217915 168.38166803 -62.1307522 166.60256808 -70 160 C-83.27557323 146.32887896 -85.38421624 130.52670441 -85.30053711 112.26416016 C-85.03472986 99.8177059 -81.77558825 88.8395124 -73.625 79.1875 C-72.75875 78.465625 -71.8925 77.74375 -71 77 C-70.44957031 76.51015625 -69.89914062 76.0203125 -69.33203125 75.515625 C-59.71507016 67.50479556 -48.66277934 66.37763692 -36.59985352 66.58837891 C-34.43653124 66.62501641 -32.27492971 66.6293957 -30.11132812 66.62890625 C-22.24338391 66.67003789 -14.69356193 67.21452655 -7 69 C-7.05244516 64.8740123 -7.14765303 60.7500277 -7.25 56.625 C-7.26417969 55.46871094 -7.27835938 54.31242188 -7.29296875 53.12109375 C-7.5099328 45.44056652 -8.08507732 37.32482528 -13.48999023 31.35400391 C-20.56087576 25.71397354 -29.85607083 25.69499157 -38.50390625 25.5859375 C-39.4677977 25.56657135 -40.43168915 25.5472052 -41.42478943 25.5272522 C-44.47060601 25.46799188 -47.51646149 25.42128725 -50.5625 25.375 C-52.64129153 25.33677084 -54.72006806 25.29771632 -56.79882812 25.2578125 C-61.8658025 25.16079823 -66.93263816 25.0808056 -72 25 C-72 18.07 -72 11.14 -72 4 C-51.79718048 -4.08112781 -20.66742277 -8.53654419 0 0 Z " fill="#85CC18" transform="translate(821,489)"/>
<path d="M0 0 C38.28 0 76.56 0 116 0 C116 10.23 116 20.46 116 31 C90.26 31 64.52 31 38 31 C38 53.11 38 75.22 38 98 C59.45 98 80.9 98 103 98 C103 108.23 103 118.46 103 129 C81.55 129 60.1 129 38 129 C38 161.67 38 194.34 38 228 C25.46 228 12.92 228 0 228 C0 152.76 0 77.52 0 0 Z " fill="#84CC17" transform="translate(138,427)"/>
<path d="M0 0 C0 6.93 0 13.86 0 21 C-4.82431641 21.03867187 -4.82431641 21.03867187 -9.74609375 21.078125 C-12.8837942 21.11661008 -16.0213339 21.16174957 -19.15893555 21.20751953 C-21.32845297 21.23563004 -23.49807091 21.25689359 -25.66772461 21.27099609 C-28.79853413 21.29256309 -31.92814753 21.33928443 -35.05859375 21.390625 C-36.49820717 21.39246796 -36.49820717 21.39246796 -37.96690369 21.39434814 C-46.4712424 21.57656968 -53.77689764 23.97136959 -60 30 C-61.64470228 34.93410684 -62.04364701 39.48782202 -60.01171875 44.37890625 C-54.37053926 53.7702783 -45.36219258 56.96236235 -35.50390625 60.59375 C-20.77375368 66.50551692 -4.72980069 75.57247421 2.375 90.4375 C7.90226121 104.96444692 8.80916005 125.4873634 3 140 C-2.44394201 150.05792903 -9.50036838 155.9220402 -20 160 C-20.79003418 160.34409912 -21.58006836 160.68819824 -22.39404297 161.04272461 C-31.31787573 164.55477441 -39.83744569 164.57911111 -49.28100586 164.46655273 C-51.92951347 164.43758734 -54.57601068 164.44598301 -57.22460938 164.45898438 C-66.88214562 164.44655002 -75.66465521 163.71545023 -85 161 C-87.08251733 160.45520449 -89.1657538 159.91314341 -91.25 159.375 C-95.86561265 158.13438735 -95.86561265 158.13438735 -97 157 C-97.08685603 155.43827255 -97.10702219 153.87270656 -97.09765625 152.30859375 C-97.09282227 150.89223633 -97.09282227 150.89223633 -97.08789062 149.44726562 C-97.07951172 148.45404297 -97.07113281 147.46082031 -97.0625 146.4375 C-97.05798828 145.44041016 -97.05347656 144.44332031 -97.04882812 143.41601562 C-97.03700007 140.94395151 -97.02051849 138.47200482 -97 136 C-96.13461861 135.99453156 -96.13461861 135.99453156 -95.25175476 135.98895264 C-89.19958462 135.94685834 -83.14815396 135.87732786 -77.09643555 135.79248047 C-74.84358142 135.76440651 -72.59063127 135.74312508 -70.33764648 135.72900391 C-67.08267537 135.70738577 -63.82884236 135.66063899 -60.57421875 135.609375 C-59.58105148 135.60814636 -58.58788422 135.60691772 -57.56462097 135.60565186 C-49.64442339 135.44299712 -41.36113272 134.19717503 -35.4375 128.5625 C-31.92153087 122.29490285 -31.03404554 117.60623 -32.9375 110.5 C-37.07660597 101.77060589 -48.43158163 96.90568579 -57 93.75 C-71.92564687 88.11638415 -87.8768073 80.16190547 -95 65 C-100.30413003 49.1899404 -102.96866362 32.27098468 -95.93359375 16.62890625 C-89.84625019 4.71539229 -80.25319545 -0.2549654 -68.19140625 -5.13671875 C-46.10435351 -11.11130707 -21.25238672 -7.00362744 0 0 Z " fill="#85CC18" transform="translate(592,493)"/>
<path d="M0 0 C12.87 0 25.74 0 39 0 C39 54.78 39 109.56 39 166 C26.13 166 13.26 166 0 166 C0 111.22 0 56.44 0 0 Z " fill="#87CD1C" transform="translate(262,489)"/>
<path d="M0 0 C12.54 0 25.08 0 38 0 C38 15.84 38 31.68 38 48 C25.46 48 12.92 48 0 48 C0 32.16 0 16.32 0 0 Z " fill="#87CD1D" transform="translate(444,432)"/>
<path d="M0 0 C12.21 0 24.42 0 37 0 C37 15.51 37 31.02 37 47 C24.79 47 12.58 47 0 47 C0 31.49 0 15.98 0 0 Z " fill="#84CC17" transform="translate(263,433)"/>
<path d="M0 0 C0.96204346 0.00249756 1.92408691 0.00499512 2.9152832 0.00756836 C4.7264563 0.02122437 4.7264563 0.02122437 6.57421875 0.03515625 C10.43109375 0.05578125 14.28796875 0.07640625 18.26171875 0.09765625 C18.26171875 13.95765625 18.26171875 27.81765625 18.26171875 42.09765625 C8.88877684 46.26340821 0.6047934 48.10813203 -9.40625 45.3671875 C-15.17290647 42.71647299 -18.8833981 38.2211313 -21.1953125 32.37109375 C-23.11534689 24.33181305 -22.55345363 15.66148534 -19.07421875 8.16015625 C-16.47040436 4.14023228 -13.13251256 1.67680559 -8.47949219 0.55126953 C-5.59786086 0.0744196 -2.91964363 -0.01561307 0 0 Z " fill="#FDFEFB" transform="translate(795.73828125,582.90234375)"/>
<path d="M0 0 C10.89 0 21.78 0 33 0 C33 15.51 33 31.02 33 47 C22.11 47 11.22 47 0 47 C0 31.49 0 15.98 0 0 Z " fill="#84CC16" transform="translate(864,609)"/>
<path d="M0 0 C0.66 0.33 1.32 0.66 2 1 C-0.97 3.97 -3.94 6.94 -7 10 C-7 7 -7 7 -4.625 4.4375 C-3.75875 3.633125 -2.8925 2.82875 -2 2 C-1.34 1.34 -0.68 0.68 0 0 Z " fill="#95D236" transform="translate(753,563)"/>
</svg>
