<?xml version="1.0" encoding="UTF-8"?>
<svg version="1.1" xmlns="http://www.w3.org/2000/svg" width="600" height="600">
<path d="M0 0 C8.91 0 17.82 0 27 0 C27.33 25.74 27.66 51.48 28 78 C29.98 74.7 31.96 71.4 34 68 C36.5396333 64.02081145 39.09383686 60.04976698 41.73754883 56.13867188 C43.12489177 53.90176807 43.12489177 53.90176807 44.28393555 50.90820312 C45.89060554 47.37848075 47.29452402 44.7917008 50 42 C55.38106468 40.50587047 60.41595582 40.85395826 65.9375 41.25 C67.39886929 41.31026265 68.86047733 41.36500371 70.32226562 41.4140625 C73.88650938 41.54565391 77.44172659 41.7522138 81 42 C80.65864014 42.61415771 80.31728027 43.22831543 79.96557617 43.86108398 C79.51674072 44.66876221 79.06790527 45.47644043 78.60546875 46.30859375 C78.16098389 47.10837646 77.71649902 47.90815918 77.25854492 48.73217773 C76.27345572 50.50724924 75.29223277 52.28446646 74.3125 54.0625 C73.879375 54.701875 73.44625 55.34125 73 56 C72.34 56 71.68 56 71 56 C70.01 58.97 70.01 58.97 69 62 C68.34 62 67.68 62 67 62 C66.87705566 62.59224365 66.75411133 63.1844873 66.62744141 63.79467773 C65.62879562 67.30470396 63.42684122 70.09031179 61.375 73.0625 C60.46669891 74.40313868 59.55915233 75.74428884 58.65234375 77.0859375 C57.97921143 78.0773877 57.97921143 78.0773877 57.29248047 79.08886719 C55.47903406 81.77032894 53.69832484 84.47121719 51.9375 87.1875 C51.38964844 88.02667969 50.84179688 88.86585938 50.27734375 89.73046875 C48.59605118 92.70368875 48.59605118 92.70368875 48 96 C49.18526791 98.36874599 49.18526791 98.36874599 50.9375 100.625 C54 104.82460137 54 104.82460137 54 107 C54.66 107 55.32 107 56 107 C57.26171875 108.8359375 57.26171875 108.8359375 58.6875 111.375 C61.41172743 116.1037207 64.43053323 120.48965845 67.6796875 124.87109375 C69 127 69 127 69 130 C69.66 130 70.32 130 71 130 C72.12915039 131.45288086 72.12915039 131.45288086 73.34765625 133.46484375 C73.78787109 134.18220703 74.22808594 134.89957031 74.68164062 135.63867188 C75.13732422 136.39728516 75.59300781 137.15589844 76.0625 137.9375 C76.96905613 139.42638812 77.87655951 140.91470004 78.78515625 142.40234375 C79.18613525 143.06741943 79.58711426 143.73249512 80.00024414 144.41772461 C80.9053244 145.97868241 80.9053244 145.97868241 82 147 C82.33 112.35 82.66 77.7 83 42 C91.58 42 100.16 42 109 42 C109 78.63 109 115.26 109 153 C91.18 153 73.36 153 55 153 C54.67 152.01 54.34 151.02 54 150 C53.34 150 52.68 150 52 150 C51.49210937 149.09378906 50.98421875 148.18757812 50.4609375 147.25390625 C46.99769219 141.11102032 43.49677951 135.0632898 39.51953125 129.234375 C37.68323678 126.53421963 35.89760428 123.80488578 34.125 121.0625 C33.52945313 120.14597656 32.93390625 119.22945313 32.3203125 118.28515625 C31 116 31 116 31 114 C30.34 114 29.68 114 29 114 C28.505 113.01 28.505 113.01 28 112 C27.67 125.53 27.34 139.06 27 153 C18.09 153 9.18 153 0 153 C0 102.51 0 52.02 0 0 Z " fill="#83CB15" transform="translate(183,220)"/>
<path d="M0 0 C8.91 0 17.82 0 27 0 C27.33 14.52 27.66 29.04 28 44 C28.99 43.34 29.98 42.68 31 42 C36.55032389 40.01924129 41.57272434 39.6642086 47.4375 39.6875 C48.24509766 39.67138672 49.05269531 39.65527344 49.88476562 39.63867188 C55.57781711 39.6340844 59.77923859 40.72827948 65 43 C65 43.66 65 44.32 65 45 C65.75925781 45.24363281 66.51851563 45.48726563 67.30078125 45.73828125 C70.37829089 47.17682773 71.37186172 48.35938782 73.1875 51.1875 C73.92033203 52.29158203 73.92033203 52.29158203 74.66796875 53.41796875 C77.8513991 59.58878243 78.28702772 65.24674541 78.22705078 72.05639648 C78.22734283 72.93524002 78.22763489 73.81408356 78.22793579 74.71955872 C78.2265505 77.6035067 78.21102719 80.4871913 78.1953125 83.37109375 C78.19157952 85.3789099 78.18873389 87.38672788 78.18673706 89.39454651 C78.17912305 94.66349368 78.15949378 99.93232953 78.1373291 105.20123291 C78.11682251 110.58400975 78.10772506 115.96680468 78.09765625 121.34960938 C78.07624573 131.89979621 78.04108182 142.4498714 78 153 C69.42 153 60.84 153 52 153 C51.9906543 150.48681152 51.98130859 147.97362305 51.97167969 145.38427734 C51.93788931 137.07408719 51.88232886 128.76414482 51.81609726 120.45415306 C51.77661391 115.41652512 51.74442959 110.3790722 51.72900391 105.34130859 C51.71384304 100.47815793 51.67940747 95.61548842 51.63169098 90.75255203 C51.61687133 88.89868989 51.60895865 87.04475905 51.60811615 85.19083786 C51.60574648 82.5907354 51.5786678 79.99196264 51.54589844 77.39208984 C51.5509288 76.62819946 51.55595917 75.86430908 51.56114197 75.07727051 C51.46085595 69.92315736 50.2412646 66.98026154 47 63 C43.91982849 60.80167718 41.28969292 60.75563575 37.5625 60.8125 C36.63566406 60.81894531 35.70882812 60.82539063 34.75390625 60.83203125 C31.60264737 60.96155634 31.60264737 60.96155634 27 62 C27 92.03 27 122.06 27 153 C18.09 153 9.18 153 0 153 C0 102.51 0 52.02 0 0 Z " fill="#83CC16" transform="translate(375,220)"/>
<path d="M0 0 C1.70736328 -0.0309375 1.70736328 -0.0309375 3.44921875 -0.0625 C12.48063998 -0.1039761 20.74583358 0.9360449 28.375 6.125 C29.4578125 6.83269531 29.4578125 6.83269531 30.5625 7.5546875 C32.73639723 9.58803103 33.4625317 11.44606095 34.375 14.25 C35.035 14.25 35.695 14.25 36.375 14.25 C36.8553318 15.83298026 37.33421612 17.41639978 37.8125 19 C38.07933594 19.88171875 38.34617187 20.7634375 38.62109375 21.671875 C40.10070644 26.73169043 40.51284178 31.22844221 40.48852539 36.50683594 C40.48867142 37.33647354 40.48881744 38.16611115 40.4889679 39.02088928 C40.48827212 41.7587446 40.48049539 44.49653159 40.47265625 47.234375 C40.47079088 49.13437869 40.46936754 51.03438286 40.46836853 52.93438721 C40.46455273 57.93208141 40.45473041 62.92974649 40.44366455 67.9274292 C40.43343031 73.02843838 40.42886659 78.12945226 40.42382812 83.23046875 C40.41310732 93.23699401 40.39551808 103.24349003 40.375 113.25 C32.455 113.25 24.535 113.25 16.375 113.25 C16.375 112.26 16.375 111.27 16.375 110.25 C15.79492188 110.52714844 15.21484375 110.80429687 14.6171875 111.08984375 C13.44542969 111.63318359 13.44542969 111.63318359 12.25 112.1875 C11.10144531 112.72697266 11.10144531 112.72697266 9.9296875 113.27734375 C0.84959343 116.73444379 -12.39662813 116.98680978 -21.5 113.375 C-24.07583011 112.1633726 -26.24292572 110.83804952 -28.625 109.25 C-28.625 108.59 -28.625 107.93 -28.625 107.25 C-29.285 107.25 -29.945 107.25 -30.625 107.25 C-31.42618392 105.90144233 -32.21541608 104.54578257 -33 103.1875 C-33.44085938 102.43339844 -33.88171875 101.67929687 -34.3359375 100.90234375 C-39.44481679 90.39043758 -39.6994985 74.94266635 -36 63.875 C-32.93797838 57.03431339 -28.0094179 50.97335731 -20.92871094 48.19018555 C-17.37917919 47.18004316 -14.45024517 47.00660009 -10.765625 47.01953125 C-9.48558594 47.02146484 -8.20554687 47.02339844 -6.88671875 47.02539062 C-5.89937744 47.03469604 -5.89937744 47.03469604 -4.89208984 47.04418945 C-2.86673538 47.06257502 -0.84183592 47.06469792 1.18359375 47.06445312 C11.09409279 47.1095464 11.09409279 47.1095464 13.375 48.25 C13.23568862 45.1663358 13.08740719 42.08316583 12.9375 39 C12.89818359 38.12730469 12.85886719 37.25460937 12.81835938 36.35546875 C12.77646484 35.51113281 12.73457031 34.66679687 12.69140625 33.796875 C12.63641968 32.63430176 12.63641968 32.63430176 12.58032227 31.44824219 C12.37896985 29.2925024 11.95770703 27.33198525 11.375 25.25 C10.715 25.25 10.055 25.25 9.375 25.25 C8.88 24.26 8.88 24.26 8.375 23.25 C3.81206431 21.31240931 -0.28630345 20.95412872 -5.2109375 20.8359375 C-5.91272125 20.81657135 -6.614505 20.7972052 -7.33755493 20.7772522 C-9.55824999 20.71792431 -11.77899823 20.67126083 -14 20.625 C-15.51434434 20.58677698 -17.02866794 20.54772278 -18.54296875 20.5078125 C-22.23686543 20.41071116 -25.93056666 20.33077587 -29.625 20.25 C-29.625 15.3 -29.625 10.35 -29.625 5.25 C-19.09256457 1.98494502 -10.99736386 0.04882293 0 0 Z M-1.5625 66.125 C-2.27277344 66.28742188 -2.98304688 66.44984375 -3.71484375 66.6171875 C-6.35748855 67.49266492 -8.20388576 68.6366994 -9.7890625 70.9453125 C-11.78601548 76.45093052 -11.69457399 83.85896429 -9.9375 89.4296875 C-8.36114788 92.07007731 -6.59465177 93.26517411 -3.875 94.625 C2.76139481 95.90122977 6.84319184 95.42726939 13.375 93.25 C13.375 84.01 13.375 74.77 13.375 65.25 C5.65217159 65.06253091 5.65217159 65.06253091 -1.5625 66.125 Z " fill="#83CB15" transform="translate(497.625,259.75)"/>
<path d="M0 0 C25.74 0 51.48 0 78 0 C78 7.26 78 14.52 78 22 C60.84 22 43.68 22 26 22 C26 36.52 26 51.04 26 66 C40.52 66 55.04 66 70 66 C70 73.26 70 80.52 70 88 C55.48 88 40.96 88 26 88 C26 109.45 26 130.9 26 153 C17.42 153 8.84 153 0 153 C0 102.51 0 52.02 0 0 Z " fill="#83CB16" transform="translate(63,220)"/>
<path d="M0 0 C0 4.95 0 9.9 0 15 C-2.15660156 15.06058594 -4.31320312 15.12117188 -6.53515625 15.18359375 C-8.643503 15.24555247 -10.75180493 15.30886962 -12.86010742 15.37231445 C-14.3157953 15.41539933 -15.77152517 15.45709075 -17.22729492 15.49731445 C-19.33004361 15.55566411 -21.43258606 15.61916516 -23.53515625 15.68359375 C-24.797229 15.72025146 -26.05930176 15.75690918 -27.35961914 15.79467773 C-30.97472628 15.99857453 -34.42749891 16.43443786 -38 17 C-38.69040574 18.65697379 -39.3530635 20.3255761 -40 22 C-40.268125 22.639375 -40.53625 23.27875 -40.8125 23.9375 C-41.1317339 27.44907286 -39.97089955 29.10161831 -38 32 C-32.47565306 36.94698051 -25.54286647 39.68905685 -18.76098633 42.46459961 C-14.46524164 44.24303896 -10.70948182 46.17317871 -7 49 C-7 49.66 -7 50.32 -7 51 C-6.39414062 51.24621094 -5.78828125 51.49242187 -5.1640625 51.74609375 C-0.77443045 54.28954481 1.11019398 59.50398003 2.76171875 64.13671875 C5.52371163 74.73415242 5.32338683 87.38291914 -0.125 97.0625 C-0.74375 98.031875 -1.3625 99.00125 -2 100 C-2.66 100 -3.32 100 -4 100 C-4 100.66 -4 101.32 -4 102 C-6.28540179 104.91007828 -8.81435413 105.90620943 -12.25 107.125 C-13.61898437 107.62386719 -13.61898437 107.62386719 -15.015625 108.1328125 C-21.92539988 110.14062667 -28.7438298 110.15402783 -35.875 110.125 C-37.28845703 110.13080078 -37.28845703 110.13080078 -38.73046875 110.13671875 C-46.26083716 110.1263033 -53.8358978 110.05860793 -61 107.5 C-61.7425 107.2421875 -62.485 106.984375 -63.25 106.71875 C-65 106 -65 106 -66 105 C-66.07313567 102.46950598 -66.09247527 99.96695163 -66.0625 97.4375 C-66.05798828 96.72658203 -66.05347656 96.01566406 -66.04882812 95.28320312 C-66.03700864 93.52209987 -66.01907263 91.76103964 -66 90 C-65.09757568 89.98018066 -64.19515137 89.96036133 -63.26538086 89.93994141 C-59.88996242 89.86144835 -56.51495602 89.77474332 -53.13989258 89.68261719 C-51.68424482 89.64453573 -50.22850963 89.609648 -48.77270508 89.578125 C-46.66976852 89.53201745 -44.56742325 89.47410453 -42.46484375 89.4140625 C-41.202771 89.3826416 -39.94069824 89.3512207 -38.64038086 89.31884766 C-33.47478601 88.86641208 -29.32980829 87.88653886 -25 85 C-23.32475339 81.29811358 -22.74478486 77.99959264 -23.75 74.0625 C-24.83364126 71.86104578 -24.83364126 71.86104578 -27 71 C-27 70.34 -27 69.68 -27 69 C-27.66 68.7525 -28.32 68.505 -29 68.25 C-31.91846195 67.03397419 -34.71334278 65.64937982 -37.53125 64.21875 C-42.63369789 61.69982003 -47.82549354 59.36639015 -53 57 C-53 56.34 -53 55.68 -53 55 C-53.99 55 -54.98 55 -56 55 C-56 54.34 -56 53.68 -56 53 C-57.32 52.34 -58.64 51.68 -60 51 C-60 50.34 -60 49.68 -60 49 C-60.66 49 -61.32 49 -62 49 C-62.82275672 47.46378265 -63.63272577 45.92071368 -64.4375 44.375 C-64.88996094 43.51648438 -65.34242188 42.65796875 -65.80859375 41.7734375 C-69.14634077 34.00360017 -69.34209355 23.0890456 -67.1875 14.9375 C-64.28988412 7.76971334 -59.95364262 2.55767762 -53 -1 C-37.05756193 -7.63205424 -15.67490818 -7.83745409 0 0 Z " fill="#83CC15" transform="translate(366,265)"/>
<path d="M0 0 C8.91 0 17.82 0 27 0 C27 36.63 27 73.26 27 111 C18.09 111 9.18 111 0 111 C0 74.37 0 37.74 0 0 Z " fill="#84CB15" transform="translate(145,262)"/>
<path d="M0 0 C8.91 0 17.82 0 27 0 C27 10.89 27 21.78 27 33 C18.09 33 9.18 33 0 33 C0 22.11 0 11.22 0 0 Z " fill="#84CB16" transform="translate(145,224)"/>
<path d="M0 0 C8.58 0 17.16 0 26 0 C26 10.89 26 21.78 26 33 C17.42 33 8.84 33 0 33 C0 22.11 0 11.22 0 0 Z " fill="#84CB16" transform="translate(266,224)"/>
<path d="M0 0 C8.58 0 17.16 0 26 0 C26 10.56 26 21.12 26 32 C17.42 32 8.84 32 0 32 C0 21.44 0 10.88 0 0 Z " fill="#84CC15" transform="translate(545,342)"/>
</svg>
